<?xml version="1.0" encoding="utf-8"?>
<!-- Generator: Adobe Illustrator 17.1.0, SVG Export Plug-In . SVG Version: 6.00 Build 0)  -->
<!DOCTYPE svg PUBLIC "-//W3C//DTD SVG 1.1//EN" "http://www.w3.org/Graphics/SVG/1.1/DTD/svg11.dtd">
<svg version="1.1" id="Layer_1" xmlns="http://www.w3.org/2000/svg" xmlns:xlink="http://www.w3.org/1999/xlink" x="0px" y="0px"
	 viewBox="0 0 24 48" width="24px" height="48px" enable-background="new 0 0 24 48" xml:space="preserve">
<rect y="24" display="none" fill="#BBBBBB" width="24" height="24"/>
<rect display="none" fill="#78B2F2" width="24" height="24"/>
<path fill="#BBBBBB" d="M12,3.2c-5,0-9,4-9,9c0,4,2.6,7.4,6.2,8.5c0.4,0.1,0.6-0.2,0.6-0.4c0-0.2,0-0.8,0-1.5c-2.5,0.5-3-1.2-3-1.2
	c-0.4-1-1-1.3-1-1.3c-0.8-0.6,0.1-0.5,0.1-0.5c0.9,0.1,1.4,0.9,1.4,0.9c0.8,1.4,2.1,1,2.6,0.7c0.1-0.6,0.3-1,0.6-1.2
	c-2-0.2-4.1-1-4.1-4.4c0-1,0.4-1.8,0.9-2.4C7.1,9.1,6.8,8.2,7.3,7c0,0,0.8-0.2,2.5,0.9c0.7-0.2,1.5-0.3,2.3-0.3
	c0.8,0,1.5,0.1,2.3,0.3C16,6.7,16.7,7,16.7,7c0.5,1.2,0.2,2.2,0.1,2.4c0.6,0.6,0.9,1.4,0.9,2.4c0,3.5-2.1,4.2-4.1,4.4
	c0.3,0.3,0.6,0.8,0.6,1.7c0,1.2,0,2.2,0,2.5c0,0.2,0.2,0.5,0.6,0.4c3.6-1.2,6.1-4.6,6.1-8.5C21,7.3,17,3.2,12,3.2z"/>
<path fill="#78B2F2" d="M12,28.2c-4.4,0-8,3.6-8,8c0,3.5,2.3,6.5,5.5,7.6c0.4,0.1,0.5-0.2,0.5-0.4c0-0.2,0-0.7,0-1.4
	C7.8,42.5,7.3,41,7.3,41c-0.4-0.9-0.9-1.2-0.9-1.2c-0.7-0.5,0.1-0.5,0.1-0.5c0.8,0.1,1.2,0.8,1.2,0.8c0.7,1.2,1.9,0.9,2.3,0.7
	c0.1-0.5,0.3-0.9,0.5-1.1c-1.8-0.2-3.6-0.9-3.6-4c0-0.9,0.3-1.6,0.8-2.1c-0.1-0.2-0.4-1,0.1-2.1c0,0,0.7-0.2,2.2,0.8
	c0.6-0.2,1.3-0.3,2-0.3c0.7,0,1.4,0.1,2,0.3c1.5-1,2.2-0.8,2.2-0.8c0.4,1.1,0.2,1.9,0.1,2.1c0.5,0.6,0.8,1.3,0.8,2.1
	c0,3.1-1.9,3.7-3.7,3.9c0.3,0.2,0.5,0.7,0.5,1.5c0,1.1,0,1.9,0,2.2c0,0.2,0.1,0.5,0.6,0.4c3.2-1.1,5.5-4.1,5.5-7.6
	C20,31.8,16.4,28.2,12,28.2z"/>
</svg>
