<?xml version="1.0" encoding="utf-8"?>
<!-- Generator: Adobe Illustrator 16.0.0, SVG Export Plug-In . SVG Version: 6.00 Build 0)  -->
<!DOCTYPE svg PUBLIC "-//W3C//DTD SVG 1.1//EN" "http://www.w3.org/Graphics/SVG/1.1/DTD/svg11.dtd">
<svg version="1.1" id="Layer_1" xmlns="http://www.w3.org/2000/svg" xmlns:xlink="http://www.w3.org/1999/xlink" x="0px" y="0px"
	 width="24px" height="48px" viewBox="0 0 24 48" enable-background="new 0 0 24 48" xml:space="preserve">
<rect y="24" display="none" fill="#BBBBBB" width="24" height="24"/>
<rect display="none" fill="#78B2F2" width="24" height="24"/>
<path fill="#BBBBBB" d="M11.999,3.222c-4.968,0-8.999,4.03-8.999,9c0,3.977,2.578,7.351,6.155,8.541
	c0.45,0.082,0.613-0.195,0.613-0.434c0-0.214-0.007-0.78-0.011-1.532c-2.505,0.544-3.032-1.206-3.032-1.206
	c-0.409-1.039-0.999-1.317-0.999-1.317c-0.817-0.558,0.062-0.547,0.062-0.547c0.903,0.063,1.379,0.928,1.379,0.928
	c0.802,1.375,2.106,0.978,2.619,0.748c0.081-0.582,0.314-0.979,0.571-1.204c-1.999-0.228-4.1-1-4.1-4.448
	c0-0.983,0.352-1.786,0.927-2.416c-0.091-0.227-0.402-1.141,0.088-2.38c0,0,0.756-0.243,2.475,0.923
	c0.718-0.2,1.488-0.3,2.254-0.304c0.767,0.004,1.533,0.104,2.252,0.304c1.72-1.166,2.474-0.923,2.474-0.923
	c0.491,1.239,0.182,2.154,0.09,2.382c0.576,0.629,0.926,1.433,0.926,2.416c0,3.457-2.104,4.218-4.109,4.44
	c0.322,0.278,0.611,0.827,0.611,1.667c0,1.203-0.012,2.173-0.012,2.469c0,0.24,0.162,0.52,0.619,0.433
	C18.423,19.568,21,16.198,21,12.222C21,7.251,16.971,3.222,11.999,3.222z"/>
<path fill="#78B2F2" d="M11.998,28.197c-4.416,0-7.999,3.58-7.999,8c0,3.533,2.292,6.533,5.472,7.591
	c0.399,0.073,0.545-0.173,0.545-0.386c0-0.189-0.006-0.693-0.01-1.361c-2.227,0.484-2.695-1.072-2.695-1.072
	c-0.363-0.924-0.888-1.17-0.888-1.17c-0.727-0.496,0.055-0.486,0.055-0.486c0.803,0.058,1.226,0.824,1.226,0.824
	c0.713,1.223,1.872,0.869,2.328,0.666c0.072-0.518,0.279-0.871,0.507-1.07c-1.777-0.201-3.644-0.889-3.644-3.952
	c0-0.874,0.313-1.589,0.824-2.147c-0.082-0.201-0.357-1.016,0.078-2.117c0,0,0.672-0.216,2.199,0.82
	c0.638-0.178,1.324-0.268,2.003-0.27c0.681,0.002,1.362,0.092,2.002,0.27c1.526-1.036,2.199-0.82,2.199-0.82
	c0.437,1.103,0.159,1.916,0.077,2.117c0.515,0.561,0.822,1.273,0.822,2.147c0,3.071-1.869,3.749-3.651,3.946
	c0.286,0.246,0.543,0.734,0.543,1.481c0,1.069-0.011,1.933-0.011,2.194c0,0.214,0.146,0.463,0.552,0.385
	C17.709,42.727,20,39.73,20,36.197C20,31.777,16.418,28.197,11.998,28.197z"/>
<g>
	<path fill="#78B2F2" d="M19.472,14.677l-0.387,2.657h1.313l-0.217,1.483h-1.328l-0.278,1.962h-1.528l0.293-1.962h-1.529
		l-0.277,1.962h-1.53l0.294-1.962h-1.329l0.217-1.483h1.313l0.387-2.657H13.57l0.216-1.468h1.329l0.277-2.008h1.53l-0.278,2.008
		h1.515l0.277-2.008h1.544l-0.293,2.008H21l-0.216,1.468H19.472z M17.942,14.677h-1.514l-0.387,2.657h1.499L17.942,14.677z"/>
</g>
<g>
	<path fill="#BBBBBB" d="M19.472,37.7l-0.387,2.656h1.313l-0.217,1.483h-1.328l-0.278,1.962h-1.528l0.293-1.962h-1.529l-0.277,1.962
		h-1.53l0.294-1.962h-1.329l0.217-1.483h1.313l0.387-2.656H13.57l0.216-1.468h1.329l0.277-2.009h1.53l-0.278,2.009h1.515
		l0.277-2.009h1.544l-0.293,2.009H21L20.784,37.7H19.472z M17.942,37.7h-1.514l-0.387,2.656h1.499L17.942,37.7z"/>
</g>
</svg>
